%
M48
M72
T01C0.0236
T02C0.0315
T03C0.0394
T04C0.0512
T05C0.1693
%
T01
X3875Y3375
X4125Y4000
X5118Y3757
X7750Y5125
X7875Y3375
X10875Y7375
X10875Y8375
X9125Y8500
X8000Y9250
X8125Y10500
X8500Y11500
X9500Y13125
X9000Y13625
X8500Y15125
X8125Y15625
X8500Y16125
X11250Y13625
X12375Y13000
X13375Y11500
X12375Y10250
X12000Y11125
X12500Y9250
X13250Y8000
X16125Y7500
X17125Y8000
X17750Y9750
X19000Y11250
X20000Y11875
X20625Y12500
X21000Y11875
X21000Y11250
X21375Y10500
X21375Y9250
X19750Y6875
X19750Y6375
X16000Y3375
X14665Y3415
X13375Y3375
X12000Y375
X4875Y9500
X5500Y9750
X7125Y11500
X6000Y13125
X3250Y14875
X3250Y18625
X6500Y20875
X9500Y20250
X10800Y21332
X12625Y18750
X12125Y18125
X12125Y17625
X12000Y15625
X12250Y14625
X14000Y14250
X14375Y14750
X16500Y11000
X18625Y12500
X18125Y16000
X21875Y12500
X15250Y26125
X8366Y24259
X6988Y24738
X5625Y26125
X4250Y26125
X875Y22375
X1250Y11125
T02
X2061Y12500
X3439Y12500
X3064Y20875
X1686Y20875
T03
X4232Y27953
X5610Y27953
X6988Y27953
X8366Y27953
X9744Y27953
X11122Y27953
X13878Y27953
X15256Y27953
X16634Y27953
X18012Y27953
X19390Y27953
X17421Y1575
X16043Y1575
X14665Y1575
X13287Y1575
X9252Y1575
X7874Y1575
X6496Y1575
X5118Y1575
T04
X14723Y17513
X13936Y19875
X14723Y22237
X19527Y22237
X19527Y17513
T05
X1575Y1575
X22047Y1575
X22047Y27953
X1575Y27953
M30
